<?xml version="1.0" encoding="UTF-8"?>
<!-- Created with Inkscape (http://www.inkscape.org/) -->
<svg width="512" height="512" version="1.1" viewBox="0 0 135.47 135.47" xml:space="preserve" xmlns="http://www.w3.org/2000/svg"><path d="m6.3823 133.89c-1.3207-0.94157-3.297-2.6217-4.3918-3.7336l-1.9905-2.0216 2.6153-4.8689c3.5485-6.6063 7.5852-18.47 8.885-26.113l1.0713-6.2993-1.7303-2.4678c-2.4986-3.5638-2.4331-9.3946 0.14694-13.077 1.608-2.2953 1.9382-3.6641 2.3028-9.5475 0.47657-7.6891 2.3348-14.767 4.7135-17.955 0.87132-1.1676 1.5842-2.4351 1.5842-2.8168 0-0.38195-3.3152-2.249-7.3671-4.1493-7.6954-3.6092-10.539-6.0926-9.1853-8.0229 0.77676-1.1077 16.762-9.1119 48.171-24.12l18.194-8.6937 32.532 16.008c17.892 8.8044 32.831 16.435 33.197 16.957 0.45082 0.64282 0.44903 1.4392-6e-3 2.4678-0.40319 0.91187-13.587 7.8677-33.007 17.414l-32.336 15.896-16.092-7.7804c-8.8505-4.2792-16.493-8.0718-16.982-8.4279-0.52764-0.38323 6.0114-4.5691 16.044-10.269 9.314-5.292 17.45-10.253 18.081-11.025 2.0659-2.5295 1.0801-7.6519-1.4726-7.6519-0.98824 0-39.827 22.066-43.128 24.503-3.4802 2.5692-7.2964 14.313-7.2964 22.455 0 2.2385 0.50711 4.5723 1.3097 6.0276 1.5761 2.858 1.699 7.8794 0.26898 10.992-0.8269 1.7999-1.0623 5.2956-1.146 17.013-0.09882 13.857-0.21069 15.068-1.8491 20.054-1.1805 3.592-2.6401 6.232-4.5185 8.1728-3.2153 3.3221-3.4245 3.3563-6.6166 1.0806zm49.551-23.534c-9.4905-1.9507-24.381-9.9498-25.86-13.892-0.60452-1.611-0.54858-2.6728 0.27059-5.1349 1.4308-4.3005 1.3081-10.572-0.27948-14.286-0.97661-2.2845-1.3073-4.7062-1.3073-9.5738 0-3.5836 0.2496-6.5157 0.55488-6.5157 0.3052 0 9.589 4.4022 20.631 9.7827 17.481 8.5183 20.308 9.653 21.874 8.7793 2.7804-1.5514 39.382-19.496 39.767-19.496 0.18688 0 0.34022 7.1307 0.34022 15.846v15.846l-1.9809 3.2179c-3.3497 5.4416-16.073 12.18-28.47 15.077-6.344 1.4828-19.172 1.6584-25.539 0.34944z" stroke-width=".78208"/></svg>
