<?xml version="1.0" encoding="UTF-8"?>
<!-- Created with Inkscape (http://www.inkscape.org/) -->
<svg width="512" height="512" version="1.1" viewBox="0 0 135.47 135.47" xml:space="preserve" xmlns="http://www.w3.org/2000/svg"><path d="m38.121-1.6667e-6c-1.9513 0-3.5222 1.5672-3.5222 3.514v10.886h-19.704c-8.2517 0-14.895 6.6276-14.895 14.86v91.347c0 8.2325 6.6431 14.86 14.895 14.86h105.68c8.2517 0 14.895-6.6276 14.895-14.86v-91.347c0-8.2325-6.6431-14.86-14.895-14.86h-19.704v-10.886c0-1.9468-1.5709-3.514-3.5222-3.514h-3.5227c-1.9513 0-3.5222 1.5672-3.5222 3.514v10.886h-45.134v-10.886c0-1.9468-1.5709-3.514-3.5222-3.514zm-16.541 22.058h13.019v13.049c0 1.9468 1.5709 3.514 3.5222 3.514h3.5227c1.9513 0 3.5222-1.5672 3.5222-3.514v-13.049h45.134v13.049c0 1.9468 1.5709 3.514 3.5222 3.514h3.5227c1.9513 0 3.5222-1.5672 3.5222-3.514v-13.049h13.019c7.2077 0 13.01 5.7892 13.01 12.98v13.099h-118.33v-13.099c0-7.1909 5.8022-12.98 13.01-12.98zm-13.01 35.719h118.33v57.051c0 7.1909-5.8022 12.98-13.01 12.98h-92.307c-7.2077 0-13.01-5.7892-13.01-12.98zm13.96 23.741c-1.7843 0-3.2208 1.4331-3.2208 3.2132v3.2132c0 1.7801 1.4365 3.2132 3.2208 3.2132h22.061c1.7843 0 3.2208-1.4331 3.2208-3.2132v-3.2132c0-1.7801-1.4365-3.2132-3.2208-3.2132zm35.023 0c-1.7843 0-3.2208 1.4331-3.2208 3.2132v3.2132c0 1.7801 1.4365 3.2132 3.2208 3.2132h22.062c1.7843 0 3.2208-1.4331 3.2208-3.2132v-3.2132c0-1.7801-1.4365-3.2132-3.2208-3.2132zm33.986 0c-1.7843 0-3.2208 1.4331-3.2208 3.2132v3.2132c0 1.7801 1.4365 3.2132 3.2208 3.2132h22.061c1.7843 0 3.2208-1.4331 3.2208-3.2132v-3.2132c0-1.7801-1.4365-3.2132-3.2208-3.2132zm-69.009 17.336c-1.7843 0-3.2208 1.4331-3.2208 3.2132v3.2132c0 1.7801 1.4365 3.2132 3.2208 3.2132h22.061c1.7843 0 3.2208-1.4331 3.2208-3.2132v-3.2132c0-1.7801-1.4365-3.2132-3.2208-3.2132zm35.023 0c-1.7843 0-3.2208 1.4331-3.2208 3.2132v3.2132c0 1.7801 1.4365 3.2132 3.2208 3.2132h22.062c1.7843 0 3.2208-1.4331 3.2208-3.2132v-3.2132c0-1.7801-1.4365-3.2132-3.2208-3.2132zm33.986 0c-1.7843 0-3.2208 1.4331-3.2208 3.2132v3.2132c0 1.7801 1.4365 3.2132 3.2208 3.2132h22.061c1.7843 0 3.2208-1.4331 3.2208-3.2132v-3.2132c0-1.7801-1.4365-3.2132-3.2208-3.2132z" style="paint-order:normal"/></svg>
