<?xml version="1.0" encoding="UTF-8"?>
<!-- Created with Inkscape (http://www.inkscape.org/) -->
<svg width="512" height="512" version="1.1" viewBox="0 0 135.47 135.47" xmlns="http://www.w3.org/2000/svg">
 <path d="m57.455 4.9333e-5 0.0022 0.04824c-7.1429 0-10.95 0.1358-13.403 0.39338-2.4529 0.2712-3.5474 0.68062-5.5604 1.4128-5.248 1.9092-9.5688 4.9232-13.51 9.4252-4.2543 4.8595-6.8503 10.015-8.5973 17.11-0.31767 1.2909-0.43636 1.676-0.53666 6.1363-0.10032 4.4608-0.14232 12.782-0.22475 29.364-0.09137 18.431-0.10329 27.034-0.35585 31.762-0.25271 4.7293-0.86305 5.8234-1.8599 8.2257-0.35834 0.86239-1.2376 2.4816-2.5068 4.7667-1.2692 2.2834-2.884 5.1106-4.5447 7.9389-1.8614 3.17-3.3926 5.857-4.477 7.8467-0.54185 0.99528-0.97327 1.8176-1.2729 2.4251-0.29937 0.61018-0.47912 1.1277-0.44662 0.99208-0.7159 3.0208 1.0057 6.3502 4.0037 7.4296 0.04745 6e-3 0.09164 0 0.17 0h0.90043c0.77921 0 1.8994 0.0541 3.3071 0.0541 2.8155 0.0542 6.783 0.0544 11.52 0.0814 9.4752 0.0542 22.031 0.0541 34.632 0.0541 12.601-6e-3 25.247-0.0542 34.905-0.0814 4.8288 0 8.9114-0.0544 11.864-0.0814 1.4764 0 2.6711-0.0541 3.5319-0.0541 0.86061 0 1.5185-0.0548 1.4407-0.0548 6.9548-1.0658 13.489-4.5411 18.464-9.8071 5.1036-5.4024 8.1919-11.536 9.9595-19.832 0.36576-1.7166 0.46217-5.3616 0.5633-35.38 0.0651-17.81 0.0707-27.342-0.0893-33.009-0.15999-5.666-0.46553-7.3475-1.0892-9.8546-0.81017-3.2573-3.645-9.784-5.3327-12.311-3.7969-5.6866-9.824-10.631-15.752-12.926-2.7173-1.0522-3.3054-1.4649-7.5924-1.709-4.287-0.24407-12.143-0.24344-28.772-0.31124-8.3324 0-14.579-0.05479-19.341-0.05479zm19.54 12.674c15.755 0.05423 23.166 0.05465 27.286 0.33935 4.1197 0.27662 5.1468 0.96754 7.2755 2.093 5.7315 3.0349 9.909 8.6886 11.726 15.819l0.7045 2.7623v68.184l-0.69298 2.7155c-2.231 8.7464-8.0051 15.199-15.732 17.577-2.0566 0.62916-5.1836 0.62396-45.651 0.71616-17.568 0.0542-28.431 0.0541-34.888-6e-3 -3.2285 0-5.3531-0.0545-6.6812-0.10875-0.66373 0-1.1221-0.0538-1.4594-0.10805-0.16865 0-0.29382 0-0.48551-0.0814-0.09625 0-0.20443-0.0544-0.4531-0.24424-0.12473-0.10847-0.31708-0.2985-0.42212-0.67004-0.10494-0.37967-0.01338-0.85932 0.11957-1.1088 0.12526-0.21695 0.44581-0.78683 0.98831-1.7306 0.54251-0.94374 1.2599-2.1852 2.0213-3.5008 3.8836-6.712 5.3973-11.156 6.0552-17.682 0.02739-0.28475 0.07919-1.4757 0.11525-3.2097 0.03362-1.7329 0.06771-4.0833 0.09292-6.9598 0.0545-5.7536 0.07996-13.621 0.07996-22.956 1e-3 -14.379 7e-3 -21.998 0.08068-26.338 0.0724-4.341 0.2276-5.5476 0.50064-6.7588 1.0351-4.5913 2.6319-7.8473 5.4912-11.19 3.4221-3.9995 7.9872-6.538 13.076-7.3006 0.5412-0.08142 1.4236-0.10791 2.9102-0.1621 1.4866-0.05423 3.5125-0.05423 6.0797-0.08142 5.1346-0.05424 12.432-0.05437 21.861-0.0056zm-2.7813 29.612c-1.2989 0.08142-2.5731 0.68129-3.5715 1.8149-0.90166 1.0251-1.1535 1.318-1.3629 2.4028-0.20932 1.0848-0.25716 3.0764-0.25716 6.8272v7.9879h-6.4363c-1.4302 0-2.8942 0.05451-4.0865 0.10875-1.1924 0.05424-2.2074 0.16262-2.3642 0.21686-1.5146 0.3661-2.8997 1.516-3.7444 3.1499-1.821 3.5201 0.07658 8.2377 3.7444 9.1313 0.15645 0.05423 1.1718 0.16262 2.3642 0.21686 1.1924 0.05423 2.6563 0.10875 4.0865 0.10875h6.4363v7.9886c0 3.2248 0.01366 4.9048 0.09221 5.8387 0.08053 0.93563 0.15736 1.0664 0.49128 1.8149 0.68195 1.5295 1.7591 2.5625 3.2286 3.0829 0.55066 0.18984 1.557 0.39338 1.8146 0.39338 0.44229 0 1.3473-0.21748 2.161-0.62969 0.8137-0.39865 1.5735-0.99507 1.8506-1.353 0.89396-1.158 1.1575-1.4863 1.3622-2.5195 0.20336-1.0332 0.26588-2.9162 0.31984-6.583l0.11957-8.0376h6.4968c3.2849 0 5.1995-0.10805 6.3722-0.40635 1.1727-0.30373 1.6492-0.70798 2.5299-1.7385 1.8007-2.1099 2.1399-4.3169 1.0949-6.8287-0.70308-1.6895-1.5314-2.6224-2.8771-3.3012-0.66593-0.339-1.7324-0.4798-6.589-0.58286l-7.0284-0.13538-0.11957-7.9857c-0.0461-3.0737-0.0863-4.7744-0.17576-5.7559-0.08948-0.98172-0.15752-1.1415-0.41348-1.6866-1.1393-2.4353-3.3732-3.6756-5.538-3.5267z" color="#000000" stroke-width=".30436" style="-inkscape-stroke:none"/>
</svg>
