<?xml version="1.0" encoding="UTF-8"?>
<!-- Created with Inkscape (http://www.inkscape.org/) -->
<svg width="512" height="512" version="1.1" viewBox="0 0 135.47 135.47" xml:space="preserve" xmlns="http://www.w3.org/2000/svg"><path d="m31.06 134.65c-0.54863-0.68354-0.56558-2.9653-0.07321-9.8178 0.96284-13.388 1.0897-12.516-1.8942-13.03-7.9427-1.3671-13.437-7.6254-14.45-16.458l-0.4064-3.5421h-4.387c-3.8968 0-4.6012-0.1792-6.3043-1.664-3.2148-2.7923-3.5452-4.4171-3.5452-17.431 0-12.733 0.32512-14.459 3.2509-17.246 1.3767-1.3108 2.3013-1.5693 6.2798-1.7562l4.6654-0.2304 0.60283-4.0958c1.1066-7.5207 3.5429-11.311 9.1203-14.188l3.723-1.92h35.615v-3.3724c0-3.0536-0.15513-3.4558-1.6411-4.2571-7.5644-4.0784-9.0525-15.97-2.7607-22.061 3.8195-3.697 10.186-4.6708 14.956-2.2861 9.2156 4.6053 9.818 18.411 1.0412 23.865-2.6136 1.6231-2.6448 1.682-2.496 4.7244l0.15104 3.0802 18.201 0.30721c17.452 0.29441 18.305 0.36609 20.722 1.6973 5.478 3.0216 8.2284 7.2998 9.247 14.384l0.61031 4.2461h4.3579c3.8651 0 4.5746 0.1792 6.2751 1.664 3.2147 2.7923 3.5452 4.4171 3.5452 17.431 0 13.014-0.33049 14.639-3.5452 17.431-1.7008 1.4772-2.4097 1.664-6.2785 1.664h-4.3612l-0.42266 3.5421c-0.62515 5.2435-2.4397 9.0393-5.8219 12.178-4.8353 4.4875-5.6621 4.6081-31.626 4.6081h-22.597l-13.167 11.704c-13.196 11.73-14.939 12.866-16.589 10.815zm16.701-18.515 10.67-9.5483 22.853-4e-3c24.217-4e-3 26.143-0.2048 29.631-2.9116 4.1648-3.2456 4.2339-3.751 4.2485-31.08 7e-3 -15.808-0.21248-25.059-0.62182-26.18-0.9024-2.4653-3.4496-5.0904-6.2281-6.4183-2.2448-1.0727-4.6621-1.1418-40.58-1.1418-35.918 0-38.335 0.0768-40.58 1.1418-2.7784 1.3287-5.3257 3.953-6.2281 6.4183-0.40978 1.1187-0.63467 10.458-0.63467 26.359 0 23.371 0.06092 24.747 1.188 27.029 2.1036 4.2564 6.6779 6.776 12.315 6.7839 4.1573 5e-3 4.2664 0.60418 2.8319 15.558-0.18688 1.9482-0.15846 3.5418 0.06092 3.5418 0.22144 0 5.2039-4.2966 11.072-9.548zm13.408-21.501c-2.6122-0.85506-7.7223-3.5185-9.4436-4.9197-0.70876-0.57858-1.0213-1.4976-0.89515-2.633 0.16333-1.4695 0.50056-1.7767 2.1368-1.9405 1.2575-0.12801 2.5643 0.26369 3.7036 1.1008 6.9421 5.1027 15.203 5.0886 22.177-0.05121 2.1412-1.5744 4.4357-1.7152 5.7545-0.35329 1.5265 1.577 0.13824 3.6048-4.0418 5.9043-6.5696 3.6146-13.85 4.6954-19.391 2.8788zm-20.18-20.356c-2.9738-1.0957-4.5068-2.5549-5.8502-5.5758-1.3893-3.1228-1.3867-5.4995 0.0068-8.6725 3.5596-8.09 14.251-8.1694 18.317-0.12801 1.094 2.1607 1.0776 6.8594-0.03379 9.0741-1.209 2.4141-4.1108 4.8022-6.7536 5.5597-2.7468 0.7885-2.8911 0.78082-5.6903-0.25601zm47.128-0.0062c-4.4186-1.6256-6.9555-5.2305-6.9555-9.8816 0-9.6215 10.951-14.046 17.416-7.0366 5.2065 5.6439 2.5985 15.066-4.7537 17.174-2.7486 0.7885-2.8895 0.78082-5.7073-0.25601z" stroke-width=".60632"/></svg>
