<?xml version="1.0" encoding="UTF-8"?>
<svg width="2458px" height="512px" version="1.1" viewBox="0 0 2458 512" xml:space="preserve" xmlns="http://www.w3.org/2000/svg" xmlns:cc="http://creativecommons.org/ns#" xmlns:dc="http://purl.org/dc/elements/1.1/" xmlns:rdf="http://www.w3.org/1999/02/22-rdf-syntax-ns#"><title>logo-dark</title><metadata><rdf:RDF><cc:Work rdf:about=""><dc:title>logo-dark</dc:title></cc:Work></rdf:RDF></metadata><path d="m55.047 16.091 77.633 24.019 207.07 85.358 93.51 58.431 4.9939 57.996-262.04 229.97-46.655-9.3815-100.52-417.33z" fill="#ededed" stroke-width="5.5096"/><g fill="#389ffe" stroke-width=".64397"><path d="m161.58 167.53c37.269 138.42 39.178 145.28 40.921 147.16 5.5985 6.0435 16.994 6.9737 24.909 2.0332 2.7081-1.6902 88.118-92.298 89.994-95.471 2.4924-4.2153 2.4586-12.222-0.0683-16.184-0.83572-1.3103-2.6968-2.7456-4.873-3.7582-1.9365-0.90105-20.972-6.7732-42.301-13.049l-38.78-11.411-9.0639-33.132c-7.8402-28.659-8.9215-33.124-8.0081-33.074 0.58065 0.0318 41.009 11.827 89.841 26.213 69.22 20.391 89.948 26.754 94.061 28.876 5.9274 3.0567 11.058 7.715 13.592 12.34 2.0944 3.8229 4.115 13.568 3.7112 17.899-0.15911 1.7075-0.17142 3.1607-0.0273 3.2294 0.70869 0.33777 4.2368-6.0962 6.0373-11.01 3.5192-9.6038 7.2402-24.455 7.5921-30.302 0.65777-10.929-1.5898-21.367-7.2097-33.482-5.2233-11.26-7.7906-15.584-9.7269-16.383-2.3926-0.9878-288.79-85.93-289.29-85.798-0.22308 0.05978 17.186 65.444 38.687 145.3z"/><path d="m412.25 109.11c6.439 11.598 11.043 26.318 11.629 37.178 0.68092 12.628-2.0181 26.889-7.5775 40.038-5.1918 12.279-7.9223 15.394-75.335 85.956-33.928 35.512-77.361 80.985-96.517 101.05s-35.187 36.598-35.624 36.739c-0.43731 0.14047-3.0464 1.4403-5.7981 2.888-6.2649 3.296-12.42 4.9685-19.511 5.3011-7.3136 0.34323-12.259-0.56798-18.474-3.4043-3.0026-1.3701-5.0358-1.9774-4.8912-1.4609 0.13563 0.48634 2.3012 3.6595 4.8113 7.0518 8.0401 10.866 17.412 18.432 30.817 24.88 17.248 8.296 34.107 12.082 47.278 10.618l4.6246-0.51416 119.38-125.19c78.699-82.533 120.97-127.31 124.06-131.41 2.5766-3.4204 5.0409-7.4229 5.4762-8.8945 0.43529-1.4716 1.5252-4.3966 2.422-6.4999 2.3646-5.5459 3.3743-12.508 2.6487-18.262-0.57283-4.5431-5.3434-16.912-8.3715-21.706-5.812-9.2002-17.41-17.494-28.416-20.321-2.3616-0.60656-14.169-4.0223-26.239-7.5905-12.07-3.5683-23.141-6.8304-24.603-7.2494l-2.6577-0.76151z"/><path d="m42.516 3.0512c-6.1121 2.9005-14.495 8.1862-20.59 12.983-4.6452 3.6555-6.1598 5.3888-11.363 13.003-7.632 11.17-9.7568 17.088-10.558 29.407-0.20349 3.1291 5.005 22.889 56.408 214l56.632 210.55 2.4881 3.6445c9.9471 14.57 23.648 22.728 41.668 24.809 9.5152 1.0992 14.769 0.66453 24.953-2.0643 17.013-4.5587 22.474-8.5737 47.969-35.266 10.054-10.527 18.315-19.412 18.358-19.746 0.0429-0.33349-0.4318-0.46977-1.055-0.3028-1.7016 0.45595-15.373-0.59222-20.987-1.609-12.069-2.1861-29.471-9.5412-39.36-16.636-9.7394-6.9875-19.127-17.081-25.276-27.176l-2.7413-4.5005-108.73-404.14-1.8256 0.5382c-1.004 0.29626-3.6984 1.4268-5.9873 2.5131z"/></g><g fill="#1a1a1a" stroke-width="257.34"><path d="m1377.5 397.82h-67.155l-90.985-96.617v96.617h-54.158v-305.45h54.158v186.3l85.352-92.284h65.856l-95.317 101.38z"/><path d="m1074.8 401.29q-33.361 0-58.057-13.431-24.263-13.431-37.26-38.127t-12.998-57.624 13.431-58.057q13.864-25.562 38.993-39.427 25.129-13.864 58.057-13.864 22.53 0 43.759 7.3654 21.663 6.9322 34.661 19.063l-15.597 38.127q-13.431-10.832-28.595-16.464-14.731-5.6324-29.462-5.6324-28.162 0-43.759 17.764-15.597 17.33-15.597 50.258 0 32.494 15.597 50.258 15.597 17.33 43.759 17.33 14.731 0 29.462-5.6324 15.164-5.6324 28.595-16.464l15.597 37.694q-13.864 12.565-35.527 19.93-21.663 6.9322-45.059 6.9322z"/><path d="m889.47 87.61h59.79v53.291h-59.79z"/><path d="m892.5 397.82v-211.86h54.158v211.86z"/><path d="m806.82 397.82v-305.45h54.158v305.45z"/><path d="m680.85 401.72q-45.059 0-78.853-19.063-33.361-19.497-51.558-55.024-17.764-35.527-17.764-82.753 0-47.225 17.764-82.319 18.197-35.527 51.558-54.591 33.794-19.497 78.853-19.497 30.761 0 58.057 9.5317 27.295 9.5317 45.926 26.862l-18.63 40.726q-20.796-16.464-41.16-23.829-20.363-7.7987-43.326-7.7987-44.193 0-68.455 28.595-23.829 28.595-23.829 82.319 0 54.158 23.829 82.753 24.263 28.595 68.455 28.595 22.963 0 43.326-7.3654 20.363-7.7987 41.16-24.263l18.63 40.726q-18.63 17.33-45.926 26.862t-58.057 9.5317z"/></g><path d="m1532.8 89.025c-56.698 0-97.584 29.699-97.584 77.141 0 43.584 35.872 75.984 96.041 83.312 49.37 6.1712 71.74 30.856 71.74 62.098 0 37.413-29.313 57.855-70.197 57.855-37.028 0-65.956-15.814-77.527-38.57-3.4714-7.3283-11.185-11.186-18.514-9.2578-9.6426 2.3142-13.5 10.414-9.6426 18.514 16.2 35.099 56.314 57.855 105.68 57.855 55.927 0 99.896-31.242 99.896-86.783 0-48.213-30.47-79.067-94.883-88.324-54.384-7.3283-72.898-28.929-72.898-54.771 0-32.785 26.614-50.525 67.498-50.525 34.328 0.38571 53.612 16.198 65.184 34.326 4.2427 7.3284 13.5 10.414 20.828 6.5566 7.3284-4.2427 9.2563-12.728 4.2422-20.828-16.2-26.613-47.054-48.598-89.867-48.598zm777.1 3.8574c-8.8712 0-14.656 5.7851-14.656 14.656v271.92c0 8.8712 5.7851 14.658 14.656 14.658 8.4854 0 14.656-5.787 14.656-14.658v-60.168l28.928-26.615 79.455 97.584c5.0142 6.5569 13.113 7.3276 19.67 1.9277s6.9438-13.114 1.9297-19.285l-80.226-98.74 77.141-69.811c6.1712-5.3998 6.557-12.729 0.7715-18.9-5.3999-6.1712-12.729-6.1713-18.9-0.77148l-108.77 98.354v-175.49c0-8.8712-6.1708-14.656-14.656-14.656zm-561.29 88.326c-60.17 0-106.07 45.513-106.84 106.07v182.05c0 8.8712 6.1717 15.043 15.043 15.043 8.8711 0 14.656-6.1718 14.656-15.043v-113.4c16.971 24.299 46.284 40.113 80.611 40.113 59.398 0 104.14-45.898 104.14-107.22 0-61.327-46.285-107.61-107.61-107.61zm215.19 0c-59.398 0-101.05 44.742-101.05 107.61 0 62.87 44.356 107.22 106.84 107.22 23.914 0 53.228-10.414 70.199-25.07 6.1712-5.3998 5.7855-13.5-0.7715-19.285-5.3997-4.2427-13.115-3.8569-18.9 0.77149-11.185 9.6426-32.014 16.971-50.527 16.971-42.813 0-74.439-28.927-78.682-70.969h155.82c8.0998 0 13.887-5.4002 13.887-13.5 0-60.555-38.572-103.75-96.812-103.75zm209.72 0c-61.327 0-107.22 46.285-107.22 107.61 0 61.327 44.74 107.22 104.14 107.22 33.942 0 62.87-15.428 80.227-40.113v23.527c0 8.4855 6.1718 14.658 15.043 14.658 8.4853 0 15.041-6.1727 15.041-14.658v-90.639c-0.3857-61.327-46.284-107.61-107.22-107.61zm-209.72 26.613c38.956 0 65.184 26.999 69.041 65.955h-141.17c5.3998-38.956 32.785-65.955 72.127-65.955zm-215.19 0.38476c44.742 0 78.299 34.715 78.299 80.613s-33.557 80.225-78.299 80.225c-44.356 0-77.525-34.326-77.525-80.225s33.17-80.613 77.525-80.613zm424.91 0c44.356 0 77.912 34.715 77.912 80.613s-33.556 80.225-77.912 80.225-78.299-34.326-78.299-80.225 33.943-80.613 78.299-80.613z" fill="#3ca1fc"/></svg>
