<?xml version="1.0" encoding="UTF-8"?>
<svg width="512" height="512" version="1.1" viewBox="0 0 512 512" xml:space="preserve" xmlns="http://www.w3.org/2000/svg" xmlns:cc="http://creativecommons.org/ns#" xmlns:dc="http://purl.org/dc/elements/1.1/" xmlns:rdf="http://www.w3.org/1999/02/22-rdf-syntax-ns#"><title>logo-dark</title><metadata><rdf:RDF><cc:Work rdf:about=""><dc:title>logo-dark</dc:title></cc:Work></rdf:RDF></metadata><path d="m55.047 16.091 77.633 24.019 207.07 85.358 93.51 58.431 4.9939 57.996-262.04 229.97-46.655-9.3815-100.52-417.33z" fill="#ededed" stroke-width="5.5096"/><g fill="#389ffe" stroke-width=".64397"><path d="m161.58 167.53c37.269 138.42 39.178 145.28 40.921 147.16 5.5985 6.0435 16.994 6.9737 24.909 2.0332 2.7081-1.6902 88.118-92.298 89.994-95.471 2.4924-4.2153 2.4586-12.222-0.0683-16.184-0.83572-1.3103-2.6968-2.7456-4.873-3.7582-1.9365-0.90105-20.972-6.7732-42.301-13.049l-38.78-11.411-9.0639-33.132c-7.8402-28.659-8.9215-33.124-8.0081-33.074 0.58065 0.0318 41.009 11.827 89.841 26.213 69.22 20.391 89.948 26.754 94.061 28.876 5.9274 3.0567 11.058 7.715 13.592 12.34 2.0944 3.8229 4.115 13.568 3.7112 17.899-0.15911 1.7075-0.17142 3.1607-0.0273 3.2294 0.70869 0.33777 4.2368-6.0962 6.0373-11.01 3.5192-9.6038 7.2402-24.455 7.5921-30.302 0.65777-10.929-1.5898-21.367-7.2097-33.482-5.2233-11.26-7.7906-15.584-9.7269-16.383-2.3926-0.9878-288.79-85.93-289.29-85.798-0.22308 0.05978 17.186 65.444 38.687 145.3z"/><path d="m412.25 109.11c6.439 11.598 11.043 26.318 11.629 37.178 0.68092 12.628-2.0181 26.889-7.5775 40.038-5.1918 12.279-7.9223 15.394-75.335 85.956-33.928 35.512-77.361 80.985-96.517 101.05s-35.187 36.598-35.624 36.739c-0.43731 0.14047-3.0464 1.4403-5.7981 2.888-6.2649 3.296-12.42 4.9685-19.511 5.3011-7.3136 0.34323-12.259-0.56798-18.474-3.4043-3.0026-1.3701-5.0358-1.9774-4.8912-1.4609 0.13563 0.48634 2.3012 3.6595 4.8113 7.0518 8.0401 10.866 17.412 18.432 30.817 24.88 17.248 8.296 34.107 12.082 47.278 10.618l4.6246-0.51416 119.38-125.19c78.699-82.533 120.97-127.31 124.06-131.41 2.5766-3.4204 5.0409-7.4229 5.4762-8.8945 0.43529-1.4716 1.5252-4.3966 2.422-6.4999 2.3646-5.5459 3.3743-12.508 2.6487-18.262-0.57283-4.5431-5.3434-16.912-8.3715-21.706-5.812-9.2002-17.41-17.494-28.416-20.321-2.3616-0.60656-14.169-4.0223-26.239-7.5905-12.07-3.5683-23.141-6.8304-24.603-7.2494l-2.6577-0.76151z"/><path d="m42.516 3.0512c-6.1121 2.9005-14.495 8.1862-20.59 12.983-4.6452 3.6555-6.1598 5.3888-11.363 13.003-7.632 11.17-9.7568 17.088-10.558 29.407-0.20349 3.1291 5.005 22.889 56.408 214l56.632 210.55 2.4881 3.6445c9.9471 14.57 23.648 22.728 41.668 24.809 9.5152 1.0992 14.769 0.66453 24.953-2.0643 17.013-4.5587 22.474-8.5737 47.969-35.266 10.054-10.527 18.315-19.412 18.358-19.746 0.0429-0.33349-0.4318-0.46977-1.055-0.3028-1.7016 0.45595-15.373-0.59222-20.987-1.609-12.069-2.1861-29.471-9.5412-39.36-16.636-9.7394-6.9875-19.127-17.081-25.276-27.176l-2.7413-4.5005-108.73-404.14-1.8256 0.5382c-1.004 0.29626-3.6984 1.4268-5.9873 2.5131z"/></g></svg>
